<?xml version="1.0" encoding="UTF-8"?>
<svg width="8mm" height="8mm" version="1.1" viewBox="0 0 52.476 52.419" xmlns="http://www.w3.org/2000/svg">
 <g transform="translate(-24.589 -60.387)">
  <g fill="#363636" stroke-width="1.4555" aria-label="☼">
   <path d="m49.775 60.387h2.1604v9.5798q2.8995 0.19899 5.1453 1.1086 2.2741 0.88123 4.7757 2.8995l8.2438-8.0732 1.4782 1.5066-8.1301 8.1301q2.0752 2.7006 2.928 4.8041 1.0802 2.729 1.1371 5.3727h9.5514v1.9615h-9.523q-0.54011 5.3727-4.065 9.8641l8.1017 8.2722-1.6203 1.4214-8.0448-8.0164q-2.7858 2.0467-4.861 2.8711-2.0752 0.79595-5.1168 1.1371v9.5798h-2.1604v-9.5798q-3.1838-0.4264-5.3727-1.3076-2.1604-0.88123-4.4346-2.6153l-8.3575 7.9027-1.4498-1.4498 8.1017-8.1301q-1.8762-2.3879-2.8427-4.7189-0.96651-2.331-1.2792-5.3442h-9.5514v-1.9615h9.5514q0.25584-3.0132 1.1939-5.259 0.93809-2.2741 2.8995-4.662l-8.0732-8.1585 1.3645-1.6203 8.3006 8.0164q2.8711-1.9899 5.0884-2.8427 2.2457-0.88123 4.861-1.1086zm15.578 26.21q0-6.0265-4.2925-10.291-4.264-4.264-10.291-4.264-6.0265 0-10.291 4.264-4.264 4.264-4.264 10.291 0 6.0265 4.264 10.319 4.264 4.264 10.291 4.264 6.0265 0 10.291-4.264 4.2925-4.2925 4.2925-10.319z" fill="#363636"/>
  </g>
 </g>
</svg>
